# xmcd
#
# Track frame offsets:
#	182
#	13300
#	24520
#	35512
#	47852
#	61617
#	73242
#	83007
#	96225
#	109395
#	122255
#	134375
#	147865
#	162030
#	175950
#
# Disc length: 2514
#
# Revision: 4
# Processed by: cddbd v1.5.1PL0 Copyright (c) Steve Scherf et al.
# Submitted via: Grip 2.94
# Normalized: r3:DSETVAR1
#
DISCID=ca09d00f
DTITLE=Various Artist - Blues Evergreens CD 2 of 4
DYEAR=1900
DGENRE=
TTITLE0=Elmore James - Dust My Broom
TTITLE1=John Lee Hooker - Bottle Up and Go
TTITLE2=Howlin' Wolf - You'll Be Mine
TTITLE3=Little Walter - Juke
TTITLE4=Howlin' Wolf - Highway 49
TTITLE5=B.B.King - Everyday I Have The Blues
TTITLE6=Bill Haley and His Comets - Blue Comet Blues
TTITLE7=Muddy Waters - Close To You
TTITLE8=Little Walter - Mean Old World
TTITLE9=Muddy Waters - Hoochie Coochie Man
TTITLE10=John Lee Hooker - I'm In The Mood
TTITLE11=B.B.King - Three O'Clock Blues
TTITLE12=Sonny Boy Williamson - Help Me
TTITLE13=Little Walter - Take Me Back
TTITLE14=Howlin Wolf - Killing Floor
EXTD=
EXTT0=
EXTT1=
EXTT2=
EXTT3=
EXTT4=
EXTT5=
EXTT6=
EXTT7=
EXTT8=
EXTT9=
EXTT10=
EXTT11=
EXTT12=
EXTT13=
EXTT14=
PLAYORDER=
